PathFileType	4	(X/Y/Z)	G:\Shared drives\HPL_Drive\Nord Sprinting Study\Kristen_Nord_test\Trimmed_Nord000005.trc
DataRate	CameraRate	NumFrames	NumMarkers	Units	OrigDataRate	OrigDataStartFrame	OrigNumFrames
200.00	200.00	      4	52	mm	200.00	1557	      2491
Frame#	Time	C7			R_Shoulder			L_Shoulder			Sternum			R_humerus			R_elbow_med			R_elbow_lat			R_forearm			R_wrist_radius			R_wrist_ulna			L_humerus			L_elbow_med			L_elbow_lat			L_forearm			L_wrist_radius			L_wrist_ulna			r.ASIS			r.PSIS			r_IC			L.ASIS			L.PSIS			l_IC			r_thigh1			r_thigh2			r_thigh3			r_thigh4			r_thigh5			r_knee			r_mknee			r_shank_antsup			r_sh2			r_sh3			r_sh4			r_ankle			r_mankle			r_calc			r_5meta			r_toe			L_thigh1			L_thigh2			L_thigh3			L_thigh4			L_knee			L_mknee			L_shank_antsup			L_sh2			L_sh3			L_ankle			L_mankle			L_calc			L_5meta			L_toe			
		X1	Y1	Z1	X2	Y2	Z2	X3	Y3	Z3	X4	Y4	Z4	X5	Y5	Z5	X6	Y6	Z6	X7	Y7	Z7	X8	Y8	Z8	X9	Y9	Z9	X10	Y10	Z10	X11	Y11	Z11	X12	Y12	Z12	X13	Y13	Z13	X14	Y14	Z14	X15	Y15	Z15	X16	Y16	Z16	X17	Y17	Z17	X18	Y18	Z18	X19	Y19	Z19	X20	Y20	Z20	X21	Y21	Z21	X22	Y22	Z22	X23	Y23	Z23	X24	Y24	Z24	X25	Y25	Z25	X26	Y26	Z26	X27	Y27	Z27	X28	Y28	Z28	X29	Y29	Z29	X30	Y30	Z30	X31	Y31	Z31	X32	Y32	Z32	X33	Y33	Z33	X34	Y34	Z34	X35	Y35	Z35	X36	Y36	Z36	X37	Y37	Z37	X38	Y38	Z38	X39	Y39	Z39	X40	Y40	Z40	X41	Y41	Z41	X42	Y42	Z42	X43	Y43	Z43	X44	Y44	Z44	X45	Y45	Z45	X46	Y46	Z46	X47	Y47	Z47	X48	Y48	Z48	X49	Y49	Z49	X50	Y50	Z50	X51	Y51	Z51	X52	Y52	Z52	

1557	7.780	1197.67798	755.09863	1172.19446	1318.09705	793.41180	1155.29150	1063.34644	797.71436	1167.60437	1189.51599	859.70154	1079.55420	1486.77026	733.23950	1126.47253	1610.21069	710.00012	1032.20105	1599.94751	663.24359	1095.82520	1610.61597	757.96210	1183.08984	1597.78064	868.13574	1226.99731	1634.29004	847.17889	1251.18811	867.83240	732.81305	1144.11707	758.81366	726.76776	1052.77563	761.15576	676.63873	1112.52454	792.25696	789.97339	1204.40039	827.50323	879.48706	1236.24341	777.90497	864.65253	1260.82434	1308.90466	630.59845	665.65875	1263.50000	534.37018	831.36798	1343.63196	634.90503	774.51807	1072.32214	615.22156	666.37402	1146.59253	527.36017	825.87585	1047.19702	621.33301	765.01965	1378.31055	486.81522	475.96411	1373.91052	430.01309	375.73590	1387.22058	376.65802	373.45847	1389.23181	395.40277	531.11804	1372.50781	339.16730	427.93442	1373.48047	345.64487	304.37143	1250.04028	329.49753	319.41052	1398.60767	216.14453	313.68164	1385.36499	97.23548	327.40997	1398.61060	223.31377	390.35181	1386.06250	109.42069	409.44861	1376.01111	-66.39009	385.38635	1297.13025	-57.76717	357.73068	1319.00623	-87.00777	446.77991	1385.72021	-153.84178	296.75659	1351.08435	-132.61197	242.13899	1009.27032	480.33429	477.35516	1010.84436	412.03299	354.03702	1009.29254	377.37167	539.05292	1016.97339	313.37274	416.70123	1002.21509	318.55341	331.27991	1124.27332	315.85153	303.01855	986.97467	205.97296	324.39740	1004.32037	220.63962	412.82959	1020.24445	99.29474	417.74814	1031.41382	-80.02988	398.72769	1097.07153	-59.07077	339.09460	1086.61487	-70.27034	439.79883	1033.45947	-195.22185	312.81256	1062.50000	-176.23885	251.54509	
1558	7.785	1197.63293	755.51208	1172.12170	1318.02649	793.86163	1155.12549	1063.37549	798.21179	1167.33130	1189.53027	860.08783	1079.23938	1486.73120	733.66235	1126.30713	1610.19031	710.38318	1032.05225	1599.89990	663.68127	1095.68823	1610.65002	758.51642	1182.85876	1597.87134	868.78326	1226.62646	1634.32227	847.82062	1250.84680	867.82471	733.32471	1143.91760	758.76202	727.14795	1052.69556	761.11670	677.04980	1112.43921	792.23804	790.50311	1204.17249	827.54779	879.98853	1235.85352	777.81903	865.36035	1260.66553	1308.91589	630.71381	665.58759	1263.51233	534.51849	831.29150	1343.63159	635.03131	774.48578	1072.36865	615.33478	666.28973	1146.53113	527.50519	825.88141	1047.18823	621.48138	764.87531	1378.30237	486.87192	475.88583	1373.92859	430.03998	375.75507	1387.22339	376.74014	373.47141	1389.64038	395.66840	531.27527	1372.53137	339.64270	428.05371	1373.49512	345.65494	304.31100	1250.03906	329.56769	319.44138	1398.26953	216.01857	313.44733	1385.39453	97.27267	327.43805	1398.61938	223.35132	390.36530	1386.24524	109.54852	409.57596	1376.00464	-66.34880	385.40579	1297.13342	-57.75076	357.74921	1318.96228	-86.97631	446.79810	1385.30505	-153.84933	296.58673	1351.03467	-132.60110	242.16269	1009.25659	480.33057	477.25143	1010.77924	412.06128	354.04868	1009.26056	377.41724	539.03717	1016.95435	313.42429	416.68442	1002.20673	318.57883	331.28470	1124.29858	315.85718	303.00137	987.03119	206.02626	324.36810	1004.30780	220.68988	412.89978	1020.20837	99.31995	417.77597	1031.23169	-79.97814	398.74579	1096.98511	-59.06307	339.12155	1086.54761	-70.22472	439.83112	1033.59204	-195.21169	312.79288	1062.44067	-176.24959	251.57605	
1559	7.790	1197.61279	755.99567	1171.91199	1317.99927	794.32782	1154.88538	1063.33215	798.70074	1167.11511	1189.50403	860.49585	1078.95264	1486.75977	734.12097	1126.07410	1610.06433	710.56268	1031.61377	1599.85938	664.10211	1095.58765	1610.70361	759.09149	1182.58533	1597.93579	869.38220	1226.28198	1634.43127	848.46149	1250.38501	867.76971	733.75781	1143.78455	758.77826	727.53296	1052.52563	761.08704	677.49451	1112.34424	792.22150	791.02399	1203.97546	827.58722	880.50391	1235.53320	777.84082	865.94427	1260.30347	1308.91138	630.77057	665.46545	1263.47314	534.67419	831.27698	1343.60718	635.15442	774.45483	1072.43164	615.43671	666.13922	1146.50024	527.66095	825.85706	1047.16138	621.62604	764.75244	1378.37085	486.97607	475.93042	1373.97827	430.12274	375.71875	1387.21033	376.80463	373.46722	1389.28870	395.60312	531.12573	1372.55713	339.32764	427.94238	1373.47754	345.68555	304.37595	1250.07568	329.60675	319.43387	1398.61169	216.15773	313.72253	1385.38000	97.27760	327.45917	1398.61218	223.38631	390.40698	1386.02319	109.41882	409.51163	1375.95850	-66.35824	385.45215	1297.11633	-57.70840	357.74716	1318.91931	-86.94324	446.81863	1385.24255	-153.84543	296.63947	1350.97839	-132.56613	242.25093	1009.31519	480.39368	477.22247	1010.93195	412.08102	353.98099	1009.29303	377.44073	539.01770	1016.95245	313.45587	416.69604	1002.21436	318.59875	331.27921	1124.25818	315.54578	303.72412	987.07343	206.12805	324.35730	1004.34894	220.70589	412.87689	1020.16858	99.36923	417.77753	1031.33337	-79.98212	398.77621	1096.97156	-59.05564	339.14801	1086.49780	-70.20876	439.89377	1033.33740	-195.16779	312.88943	1062.35461	-176.26907	251.63661	
1560	7.795	1197.57239	756.53430	1171.80896	1318.04309	794.59100	1154.59961	1063.26001	798.75116	1167.34656	1189.45483	860.87964	1078.60693	1486.74121	734.56134	1125.90149	1610.06396	710.96973	1031.46460	1599.84082	664.54004	1095.46643	1610.73352	759.64301	1182.34277	1598.01306	869.97711	1225.90540	1634.52942	849.09784	1250.01514	867.80219	734.25891	1143.61072	758.75208	727.93622	1052.36792	760.99786	677.95068	1112.26941	792.19257	791.61523	1203.78259	827.58447	880.99310	1235.21777	777.83252	866.59436	1260.00232	1308.93579	630.83777	665.37610	1263.44873	534.79083	831.25897	1343.60681	635.27466	774.39063	1072.47729	615.55725	666.05817	1146.50708	527.81854	825.82581	1047.17871	621.77917	764.64063	1378.39526	487.00818	475.92670	1373.94971	430.18262	375.72360	1387.82837	376.37375	373.93423	1389.26343	395.63199	531.11206	1372.58240	339.37469	427.95334	1373.47339	345.67618	304.41153	1250.07837	329.66083	319.46970	1398.62659	216.14175	313.76221	1385.38416	97.29143	327.52371	1398.60144	223.41594	390.39194	1385.99768	109.50242	409.51605	1375.92065	-66.33379	385.45703	1297.11511	-57.71062	357.69974	1318.87036	-86.90916	446.84705	1385.57922	-153.84030	296.85956	1350.97070	-132.52893	242.28706	1009.30994	480.41241	477.19125	1010.95123	412.12152	353.92383	1009.25684	377.58670	539.00568	1016.95410	313.49506	416.69229	1002.23053	318.63226	331.30923	1124.26453	315.84665	303.00900	986.99243	206.14960	324.41754	1004.26868	220.73769	412.83652	1020.17847	99.39294	417.80768	1031.29541	-79.93350	398.75681	1096.93762	-59.03016	339.16995	1086.44055	-70.17330	439.94244	1033.26843	-195.15244	312.92532	1062.29761	-176.26395	251.66290	
